<svg width="600" height="600" viewBox="0 0 600 600" fill="none" xmlns="http://www.w3.org/2000/svg"><path d="M200.002 200H300.002V0H400.002V200H500.002V0H600.002V598.315C280.811 574.034 26.0606 319.219 1.88086 0H200.002V200Z" fill="black" /><path d="M14.0398 211.977C20.4315 209.314 27.7612 212.361 30.5182 218.713C98.2417 374.75 223.191 500.191 378.885 568.554C385.188 571.321 388.213 578.597 385.593 584.962V584.962C382.956 591.369 375.604 594.419 369.258 591.638C207.467 520.723 77.6447 390.389 7.39452 228.242C4.65724 221.924 7.68406 214.626 14.0398 211.977V211.977Z" fill="black" /></svg>