<svg width="600" height="600" viewBox="0 0 600 600" fill="none" xmlns="http://www.w3.org/2000/svg"><path d="M599.999 600.004H499.999V450.004C499.999 422.39 477.613 400.004 449.999 400.004H249.999C222.385 400.004 199.999 422.39 199.999 450.004V600.004H1.91016C26.2823 280.982 280.949 26.3799 599.999 2.10938V600.004Z" fill="black"/><path d="M374.999 500.004C388.806 500.004 399.999 511.197 399.999 525.004V600.004H299.999V525.004C299.999 511.197 311.192 500.004 324.999 500.004H374.999Z" fill="black"/><path d="M388.181 14.2738C390.845 20.6654 387.798 27.9949 381.446 30.7522C225.474 98.463 100.077 223.354 31.709 378.974C28.9409 385.274 21.666 388.298 15.302 385.679V385.679C8.89426 383.041 5.84401 375.688 8.62699 369.342C79.5468 207.627 209.835 77.8655 371.915 7.6285C378.234 4.89041 385.533 7.91737 388.181 14.2738V14.2738Z" fill="black"/></svg>