<svg width="600" height="600" viewBox="0 0 600 600" fill="none" xmlns="http://www.w3.org/2000/svg"> <path d="M200 100H100V200H400V100H300V0H598.121C573.941 319.219 319.191 574.034 0 598.315V0H200V100Z" fill="black"/> <path d="M584.838 214.418C591.243 217.055 594.294 224.405 591.515 230.75C520.655 392.558 390.37 522.411 228.264 592.715C221.945 595.455 214.644 592.429 211.995 586.071V586.071C209.332 579.681 212.377 572.353 218.727 569.595C374.724 501.82 500.118 376.84 568.428 221.13C571.194 214.825 578.471 211.798 584.838 214.418V214.418Z" fill="black"/></svg>