<!-- <svg
	width="600"
	height="600"
	viewBox="0 0 600 600"
	fill="none"
	xmlns="http://www.w3.org/2000/svg"
>
	<path
		d="M0 2.10938C319.05 26.3799 573.717 280.982 598.089 600.004H300V500.004H400V400.004H100V500.004H200V600.004H0V2.10938Z"
		fill="black"
	/>
	<path
		d="M219.117 3.81738C390.05 75.0646 526.677 212.137 597.34 383.374L574.257 392.994C506.141 227.862 374.414 95.6675 209.599 26.9414L219.117 3.81738Z"
		fill="black"
	/>
</svg> -->
<svg
	width="600"
	height="600"
	viewBox="0 0 600 600"
	fill="none"
	xmlns="http://www.w3.org/2000/svg"
>
	<path
		d="M0 2.10938C319.05 26.3799 573.717 280.982 598.089 600.004H300V500.004H400V400.004H100V500.004H200V600.004H0V2.10938Z"
		fill="black"
	/>
	<path
		d="M214.336 15.4304C216.972 9.02451 224.323 5.97415 230.668 8.75435C392.398 79.6198 522.192 209.857 592.482 371.896C595.223 378.215 592.197 385.516 585.839 388.166V388.166C579.448 390.829 572.12 387.784 569.361 381.435C501.6 225.503 376.679 100.154 221.044 31.8386C214.741 29.072 211.715 21.7957 214.336 15.4304V15.4304Z"
		fill="black"
	/>
</svg>